<?xml version="1.0" standalone="no"?>
<svg
  width="600"
  height="600"
  viewBox="0 0 600 600"
  xmlns="http://www.w3.org/2000/svg"
>
  <g transform="translate(300,300)">
    <path d="M76.8,-129.3C98.8,-105.3,115.3,-82.8,134.6,-56.7C153.9,-30.7,175.9,-1.1,184.1,35C192.2,71.1,186.4,113.8,160.3,132.6C134.2,151.4,87.8,146.2,44.6,164.9C1.3,183.6,-38.8,226.1,-81.5,233.6C-124.1,241.1,-169.4,213.5,-184.3,172.8C-199.2,132.1,-183.7,78.1,-171.5,36.4C-159.2,-5.3,-150.1,-34.9,-148.6,-80.3C-147.2,-125.6,-153.3,-186.9,-129.8,-210.2C-106.3,-233.4,-53.2,-218.7,-12.9,-198.7C27.4,-178.6,54.8,-153.2,76.8,-129.3Z" fill="#222222" />
  </g>
</svg>
  