<?xml version="1.0" standalone="no"?>
<svg
  width="600"
  height="600"
  viewBox="0 0 600 600"
  xmlns="http://www.w3.org/2000/svg"
>
  <g transform="translate(300,300)">
    <path d="M114.4,-157.2C152.8,-153.4,191.4,-129.2,211,-94.1C230.6,-59,231.1,-12.8,212,21.4C193,55.6,154.3,77.9,123.2,98.1C92.2,118.3,68.8,136.4,38.3,157.9C7.8,179.4,-29.8,204.4,-67.8,205C-105.9,205.7,-144.4,182.1,-180.3,150.7C-216.3,119.2,-249.7,80,-260,34.9C-270.3,-10.1,-257.5,-60.9,-227.4,-94.4C-197.4,-127.8,-150,-143.8,-109.3,-146.5C-68.5,-149.2,-34.2,-138.6,1.9,-141.6C38,-144.5,76.1,-161,114.4,-157.2Z" fill="#222222" />
  </g>
</svg>
  